<svg xmlns="http://www.w3.org/2000/svg" xmlns:xlink="http://www.w3.org/1999/xlink" width="300" height="300" viewBox="2549702.0057920003 5681993.2573919995 38533.97361599933 37665.946816000156" preserveAspectRatio="xMinYMin meet"><g transform="matrix(1,0,0,-1,0,11401652.461599998)"><path fill-rule="evenodd" fill="#66cc99" stroke="#555555" stroke-width="256.89315743999555" opacity="0.6" d="M 2569098.3844999997,5691099.7933 L 2572714.96,5694564.37 L 2568641.091,5698764.3889 L 2551129.1900000004,5716529.01 L 2552841.5599999996,5718232.02 L 2568760.6900000004,5701974.77 L 2568904.6931999996,5702113.6399 L 2574511.1843999997,5696294.7515 L 2577250.25,5693455.5 L 2577320.0757,5693386.4335 L 2578936.8125,5694875.3357 L 2579611.9127,5694147.3912 L 2579739.2834,5694230.1663 L 2580041.5043,5693965.5824 L 2580318.0472999997,5693682.4865 L 2580482.8974,5693561.6394 L 2580615.7041999996,5693438.4079 L 2580651.4230000004,5693394.0901 L 2580715.5845999997,5693349.1108 L 2580763.8852000004,5693322.6782 L 2580796.9441,5693300.1628 L 2580898.8088999996,5693216.8189 L 2580953.0486000003,5693180.4386 L 2581011.2571,5693166.5479 L 2581042.2006,5693153.7982 L 2581080.6134,5693177.7439 L 2581111.3603,5693103.4945 L 2581148.402,5693046.6089 L 2581181.4749999996,5693017.5047 L 2581210.4652000004,5692995.1363 L 2581241.1569,5692976.0863 L 2581270.7903000005,5692966.5613 L 2581294.0736999996,5692961.2696 L 2581314.1821,5692955.9779 L 2581319.442,5692956.2284 L 2581319.5873999996,5692956.2353 L 2581336.4071000004,5692957.0362 L 2581357.5738000004,5692964.4446 L 2581376.6239,5692976.0863 L 2581395.6739,5692991.9613 L 2581424.2216999996,5693020.5091 L 2581446.4740000004,5693042.7614 L 2581473.7794000003,5693068.4606 L 2581513.9429,5693106.2615 L 2581582.7347,5693161.8241 L 2581610.516,5693179.0221 L 2581635.6514999997,5693190.9284 L 2581659.3521,5693198.4695 L 2581664.7556999996,5693200.1888 L 2581691.2141000004,5693202.8346 L 2581717.6725000003,5693197.543 L 2581726.7281,5693195.5306 L 2581765.2976,5693186.9596 L 2581771.9511,5693185.1114 L 2581789.1101,5693180.345 L 2581839.3811,5693152.5637 L 2581842.7287,5693150.5761 L 2581881.7145,5693127.4282 L 2581912.1415999997,5693098.324 L 2581950.5062999995,5693069.2198 L 2581966.3812999995,5693046.7302 L 2581983.5793000003,5693018.2213 L 2582007.3918000003,5692992.8212 L 2582028.0294000003,5692966.6274 L 2582063.7482000003,5692935.6711 L 2582101.8482,5692902.3335 L 2582123.2795,5692883.2835 L 2582140.7421000004,5692862.6459 L 2582153.4420999996,5692834.8646 L 2582172.4921000004,5692815.8146 L 2582198.6859,5692802.3208 L 2582254.2485999996,5692782.477 L 2582278.8548999997,5692765.8082 L 2582307.4299,5692752.3145 L 2582333.3591,5692747.0228 L 2582359.8175,5692740.4082 L 2582379.6613,5692725.8561 L 2582392.8904999997,5692711.304 L 2582420.6717999997,5692672.9393 L 2582431.2551999995,5692650.4497 L 2582445.8073000005,5692621.3455 L 2582457.7134999996,5692589.5954 L 2582466.9740000004,5692548.5849 L 2582474.9115000004,5692514.189 L 2582484.1719000004,5692463.9181 L 2582490.7865000004,5692409.6784 L 2582500.3809,5692318.5322 L 2582501.3699000003,5692309.1365 L 2582501.3699000003,5692262.8343 L 2582500.4905000003,5692253.6012 L 2582496.0782000003,5692207.2717 L 2582495.7499,5692202.0193 L 2582484.1719000004,5692016.7713 L 2582480.2032000003,5691949.3024 L 2582478.1487,5691919.1704 L 2582476.2344000004,5691891.094 L 2582476.2344000004,5691855.3752 L 2582474.9115000004,5691823.6251 L 2582474.9115000004,5691789.2292 L 2582476.2344000004,5691760.125 L 2582481.5261000004,5691731.0208 L 2582492.1094000004,5691705.8853 L 2582507.9845000003,5691678.104 L 2582535.7658,5691647.6768 L 2582578.0992,5691607.9893 L 2582621.7555,5691574.9163 L 2582681.2868999997,5691539.1975 L 2582722.2973999996,5691514.062 L 2582789.7663000003,5691480.989 L 2582846.6518,5691447.916 L 2582928.6728,5691404.2597 L 2582959.0999999996,5691385.7388 L 2582990.8499999996,5691364.5721 L 2583018.6312999995,5691330.1762 L 2583032.9298,5691297.6797 L 2583033.1834000004,5691297.1032 L 2583043.7668000003,5691258.7386 L 2583050.3814000003,5691217.7281 L 2583051.9327999996,5691198.5946 L 2583054.3502,5691168.7801 L 2583055.6731000002,5691135.7071 L 2583059.6418000003,5691106.6028 L 2583067.5793000003,5691084.1132 L 2583084.7773,5691021.936 L 2583087.4374,5691013.2908 L 2583095.3607,5690987.5401 L 2583096.6836,5690959.7588 L 2583100.6523,5690922.7171 L 2583101.4245999996,5690913.8361 L 2583108.5898,5690831.4356 L 2583113.8815,5690758.6751 L 2583119.1732,5690713.6958 L 2583129.7566,5690656.8103 L 2583132.4024,5690610.5081 L 2583136.7054000003,5690569.199 L 2583139.017,5690547.008 L 2583139.9415999996,5690528.8236 L 2583142.9857,5690468.9557 L 2583148.2673000004,5690418.7813 L 2583148.2774,5690418.6848 L 2583152.2462,5690378.9972 L 2583153.4813,5690359.235 L 2583153.5691,5690357.8305 L 2583153.5691,5690318.1429 L 2583153.5691,5690271.8408 L 2583157.5379,5690221.5698 L 2583168.1212,5690176.5906 L 2583185.3192,5690128.9655 L 2583207.8087999998,5690078.6945 L 2583225.9135,5690032.3012 L 2583228.9754999997,5690024.4548 L 2583238.2358999997,5689983.4443 L 2583247.4963999996,5689947.7255 L 2583255.4338999996,5689892.1629 L 2583262.0484999996,5689840.5691 L 2583266.0171999997,5689785.0065 L 2583268.6630999995,5689732.0897 L 2583273.9548000004,5689680.4958 L 2583280.5694000004,5689644.777 L 2583280.5694000004,5689603.7665 L 2583275.2777000004,5689574.6623 L 2583276.6005999995,5689537.6205 L 2583287.1840000004,5689507.1934 L 2583294.9428000003,5689493.0864 L 2583301.7361000003,5689480.735 L 2583318.9340000004,5689458.2454 L 2583341.4236000003,5689443.6933 L 2583387.7258,5689419.8807 L 2583479.0072999997,5689382.839 L 2583542.5073999995,5689348.4431 L 2583586.1637000004,5689324.6305 L 2583625.8513,5689303.4638 L 2583644.5273,5689295.5407 L 2583669.5076,5689284.943 L 2583706.5494,5689267.745 L 2583739.6223999998,5689255.8387 L 2583792.5390999997,5689234.672 L 2583830.2215,5689219.3954 L 2583841.4870999996,5689214.8282 L 2583874.5601000004,5689194.9844 L 2583907.6331,5689169.849 L 2583955.2582,5689135.4531 L 2583996.2687,5689098.4113 L 2584034.6333999997,5689062.6925 L 2584063.7375999996,5689042.8487 L 2584108.7167999996,5689011.0987 L 2584155.0190000003,5688983.3173 L 2584229.1025,5688940.9839 L 2584297.8943,5688910.5568 L 2584399.7591000004,5688865.5775 L 2584473.8426,5688843.0879 L 2584528.0823,5688827.2129 L 2584570.4157,5688807.3691 L 2584619.3636999996,5688786.2024 L 2584666.9888000004,5688765.0357 L 2584694.7701000003,5688751.8065 L 2584723.8743000003,5688730.6398 L 2584738.4264,5688704.1814 L 2584754.3015,5688676.4001 L 2584766.2077,5688649.9417 L 2584787.3745,5688616.8687 L 2584795.312,5688589.0874 L 2584809.8641,5688561.3061 L 2584823.0933,5688530.8789 L 2584844.26,5688501.7747 L 2584878.6558999997,5688456.7955 L 2584914.3746999996,5688391.9724 L 2584946.1248000003,5688341.7015 L 2584975.2290000003,5688299.3681 L 2585020.2083,5688226.6075 L 2585059.8958,5688168.3991 L 2585102.2292,5688108.8677 L 2585144.5626999997,5688055.9509 L 2585198.8024000004,5687988.482 L 2585257.0108000003,5687928.9507 L 2585312.5734,5687872.0651 L 2585377.3965,5687809.8879 L 2585443.5423999997,5687766.2316 L 2585522.9176000003,5687726.544 L 2585597.0011,5687696.1169 L 2585669.7616,5687670.9814 L 2585758.3971999995,5687641.8772 L 2585836.4495,5687616.7417 L 2585886.7204,5687604.8354 L 2585923.7621,5687588.9604 L 2585966.0955999997,5687569.1166 L 2585989.9080999997,5687551.9187 L 2586017.6893999996,5687529.429 L 2586031.5140000004,5687508.0009 L 2586044.1478000004,5687488.4185 L 2586053.2896,5687467.3923 L 2586053.5196,5687466.8635 L 2586057.3770000003,5687457.9914 L 2586066.6374000004,5687427.5642 L 2586069.2833000002,5687395.8142 L 2586070.6062000003,5687356.1266 L 2586071.9291000003,5687313.7932 L 2586069.2833000002,5687284.689 L 2586066.6374000004,5687248.9701 L 2586069.2833000002,5687217.2201 L 2586065.3145000003,5687186.7929 L 2586061.3458000002,5687156.3658 L 2586056.0541000003,5687131.2303 L 2586038.8561000004,5687080.9594 L 2586005.7830999997,5687025.3968 L 2585989.9080999997,5686996.2925 L 2585975.3559999997,5686963.2196 L 2585967.9178,5686947.6964 L 2585944.9288999997,5686899.7194 L 2585925.0851,5686840.1881 L 2585902.5954,5686780.6567 L 2585889.3662,5686738.3233 L 2585878.7829,5686695.9899 L 2585878.6881999997,5686693.8116 L 2585878.1964999996,5686682.5026 L 2585877.46,5686665.5627 L 2585876.137,5686632.4897 L 2585884.0746,5686584.8646 L 2585892.0121,5686557.0833 L 2585894.0261000004,5686551.0412 L 2585905.2413,5686517.3957 L 2585905.3019000003,5686517.2419 L 2585922.4392,5686473.7394 L 2585939.6371999998,5686447.281 L 2585959.4809999997,5686427.4372 L 2585980.6476999996,5686403.6247 L 2586007.1061000004,5686382.458 L 2586042.8249000004,5686365.26 L 2586075.8979,5686353.3538 L 2586118.2313,5686342.7704 L 2586161.8876,5686324.2495 L 2586220.0960999997,5686296.4682 L 2586278.3044999996,5686276.6244 L 2586347.0963000003,5686256.7806 L 2586414.5652,5686230.3223 L 2586464.8361,5686210.4785 L 2586493.9403999997,5686195.9264 L 2586521.7216999996,5686177.4055 L 2586545.5341999996,5686157.5617 L 2586570.6697000004,5686129.7804 L 2586583.8989000004,5686107.2908 L 2586601.0968000004,5686071.5719 L 2586608.8265000004,5686050.3153 L 2586616.9719000002,5686027.9156 L 2586626.2323000003,5685990.8739 L 2586630.2011,5685961.7696 L 2586632.8469000002,5685928.6967 L 2586631.8304000003,5685911.4163 L 2586631.524,5685906.207 L 2586620.9406000003,5685866.5194 L 2586610.3573000003,5685837.4152 L 2586594.4822000004,5685809.6339 L 2586560.0862999996,5685764.6547 L 2586536.2737999996,5685738.1963 L 2586503.2007999998,5685706.4462 L 2586479.3882999998,5685673.3732 L 2586455.5757,5685646.9148 L 2586438.3778,5685615.1648 L 2586414.5652,5685583.4147 L 2586392.0756,5685549.0188 L 2586364.2943,5685521.2375 L 2586343.1276000002,5685511.9771 L 2586314.6468,5685506.5 L 2586308.7317000004,5685505.3625 L 2586282.2732999995,5685497.425 L 2586254.4919999996,5685493.4562 L 2586226.7106999997,5685497.425 L 2586173.7939,5685504.0396 L 2586134.1063,5685510.6542 L 2586094.4187000003,5685525.2063 L 2586050.7624000004,5685538.4355 L 2586013.7207000004,5685550.3417 L 2585974.0330999997,5685562.248 L 2585930.3767,5685566.2168 L 2585892.0121,5685568.8626 L 2585849.6787,5685563.5709 L 2585808.6682,5685559.6022 L 2585766.3346999995,5685551.6647 L 2585748.8729999997,5685543.7275 L 2585737.2304999996,5685538.4355 L 2585698.8658999996,5685514.6229 L 2585672.4074999997,5685492.1333 L 2585649.9178,5685460.3832 L 2585632.7199,5685429.9561 L 2585619.4907,5685396.8831 L 2585611.5532,5685363.8101 L 2585607.5844,5685330.7371 L 2585608.9073,5685298.9871 L 2585615.5219,5685267.237 L 2585631.397,5685239.4557 L 2585648.5949,5685216.9661 L 2585673.7304,5685193.1535 L 2585693.5741999997,5685178.6014 L 2585710.7720999997,5685153.4659 L 2585720.0325999996,5685121.7159 L 2585729.2929999996,5685088.6429 L 2585739.8764000004,5685060.8616 L 2585766.3346999995,5685023.8198 L 2585791.4702000003,5684978.8406 L 2585815.2828,5684951.0593 L 2585837.7724,5684917.9863 L 2585870.8454,5684891.5279 L 2585899.9496,5684867.7154 L 2585930.3767,5684837.2882 L 2585981.9705999997,5684801.5694 L 2586026.9497999996,5684769.8193 L 2586050.7624000004,5684749.9755 L 2586073.1813000003,5684728.5314 L 2586081.1895000003,5684720.8713 L 2586084.4014999997,5684715.9589 L 2586103.6792,5684686.4754 L 2586134.1063,5684649.4337 L 2586159.2418,5684625.6211 L 2586183.0543,5684601.8086 L 2586190.4283,5684596.0733 L 2586206.8669,5684583.2877 L 2586220.3948,5684565.8947 L 2586225.3877,5684559.4752 L 2586273.0127999997,5684509.2042 L 2586302.1171000004,5684468.1937 L 2586337.8359000003,5684421.8916 L 2586356.3568,5684394.1103 L 2586359.9825,5684388.6717 L 2586374.8776000002,5684366.3289 L 2586397.3673,5684321.3497 L 2586413.2423,5684284.308 L 2586423.8256,5684244.6204 L 2586435.7319,5684202.287 L 2586443.6694,5684155.9848 L 2586450.284,5684109.6826 L 2586456.096,5684060.8622 L 2586456.8986,5684054.12 L 2586466.1591,5683994.5886 L 2586482.0341,5683874.203 L 2586482.0341,5683839.8071 L 2586483.357,5683812.0258 L 2586483.357,5683782.9215 L 2586488.6487,5683753.8173 L 2586499.25,5683736.5 L 2586523.0445999997,5683704.8693 L 2586556.1176000005,5683665.1817 L 2586583.8989000004,5683638.7233 L 2586610.3573000003,5683613.5879 L 2586642.1073000003,5683599.0357 L 2586671.2116,5683581.8378 L 2586721.4825,5683552.7336 L 2586751.9096,5683536.8585 L 2586791.5971999997,5683509.0772 L 2586804.8263999997,5683483.9418 L 2586808.7951999996,5683452.1917 L 2586784.9825999998,5683427.0562 L 2586741.3263,5683420.4416 L 2586679.1491,5683421.7646 L 2586622.2635000004,5683432.3479 L 2586557.4404999996,5683450.8688 L 2586505.8466,5683474.6813 L 2586460.8674,5683497.171 L 2586430.4402,5683515.6918 L 2586389.4297,5683530.2439 L 2586351.0651000002,5683550.0877 L 2586321.9609000003,5683572.5774 L 2586302.1171000004,5683604.3274 L 2586282.2732999995,5683628.14 L 2586253.1690999996,5683660.0223 L 2586235.9710999997,5683697.0641 L 2586222.7419,5683727.4912 L 2586218.7731,5683749.9808 L 2586219.7268000003,5683782.4043 L 2586220.0960999997,5683794.9601 L 2586225.3877,5683842.5852 L 2586229.3564999998,5683892.8561 L 2586232.0023,5683936.5125 L 2586228.0335999997,5683977.523 L 2586220.0960999997,5684026.471 L 2586204.221,5684068.8044 L 2586189.6689,5684103.2003 L 2586156.5959,5684145.5337 L 2586122.2,5684186.5442 L 2586094.4187000003,5684211.6797 L 2586060.0228000004,5684240.7839 L 2586016.3664999995,5684272.534 L 2585972.7101999996,5684297.6694 L 2585918.4705,5684336.0341 L 2585876.137,5684369.1071 L 2585848.3557,5684394.2425 L 2585823.2203,5684423.3468 L 2585791.4702000003,5684456.4198 L 2585757.0743000004,5684485.524 L 2585718.7095999997,5684508.0136 L 2585684.3137,5684523.8886 L 2585655.2095,5684539.7637 L 2585622.1365,5684562.2533 L 2585595.6782,5684579.4512 L 2585577.1573,5684604.5867 L 2585553.3447000002,5684637.6597 L 2585530.8551000003,5684672.0556 L 2585512.3342000004,5684718.3578 L 2585496.4592000004,5684755.3995 L 2585484.5528999995,5684788.4725 L 2585468.6778999995,5684829.483 L 2585455.4486999996,5684871.8164 L 2585444.8653999995,5684910.1811 L 2585432.9590999996,5684948.5457 L 2585422.3756999997,5684976.327 L 2585402.5319,5685006.7542 L 2585377.3965,5685051.7334 L 2585354.9068,5685104.6502 L 2585331.0943,5685154.9212 L 2585317.8651,5685195.9316 L 2585300.6671,5685232.9734 L 2585283.4692,5685263.4005 L 2585259.6566000003,5685301.7652 L 2585229.2295000004,5685341.4528 L 2585206.7399000004,5685364.3834 L 2585184.2501999997,5685388.1959 L 2585160.4376999997,5685401.4251 L 2585136.6251999997,5685413.3314 L 2585108.8438,5685419.946 L 2585077.0938,5685419.946 L 2585037.4062,5685421.2689 L 2585003.0103,5685410.6856 L 2584972.5832,5685396.1334 L 2584948.7706000004,5685382.9042 L 2584922.3121999996,5685369.6751 L 2584894.5308999997,5685351.1542 L 2584872.0412999997,5685328.6646 L 2584849.5516999997,5685299.5603 L 2584817.8016,5685266.4873 L 2584784.7286,5685222.831 L 2584746.364,5685167.2684 L 2584715.9368000003,5685114.3516 L 2584694.7701000003,5685081.2786 L 2584680.2180000003,5685045.5598 L 2584669.6346000005,5685020.4244 L 2584653.7596000005,5684991.3201 L 2584636.5617000004,5684968.8305 L 2584620.6865999997,5684943.695 L 2584600.8427999998,5684922.5283 L 2584579.6761,5684896.0699 L 2584557.1865,5684874.9032 L 2584516.176,5684852.4136 L 2584487.0718,5684832.5698 L 2584444.7384,5684811.4031 L 2584399.7591000004,5684792.8822 L 2584360.0714999996,5684779.653 L 2584316.4151999997,5684766.4238 L 2584270.113,5684753.1947 L 2584233.0713,5684745.2571 L 2584203.967,5684733.3509 L 2584158.9878000002,5684724.0904 L 2584115.3313999996,5684720.1217 L 2584075.6438999996,5684720.1217 L 2584041.2479999997,5684720.1217 L 2584009.4979,5684724.0904 L 2583977.7478,5684726.7363 L 2583951.2894,5684732.0279 L 2583923.5081,5684737.3196 L 2583902.3414000003,5684746.5801 L 2583881.1747000003,5684755.8405 L 2583858.6851000004,5684766.4238 L 2583841.4870999996,5684774.3614 L 2583826.9349999996,5684779.653 L 2583808.4142000005,5684779.653 L 2583788.5703999996,5684775.6843 L 2583763.4348999998,5684777.0072 L 2583733.0078,5684784.9447 L 2583710.5181,5684792.8822 L 2583656.2784,5684824.6323 L 2583603.3617000002,5684851.0907 L 2583555.7366000004,5684877.5491 L 2583522.6635999996,5684897.3929 L 2583498.851,5684918.5596 L 2583479.0072999997,5684933.1117 L 2583455.1947,5684947.6638 L 2583435.3509,5684958.2471 L 2583410.2154,5684968.8305 L 2583387.7258,5684980.7368 L 2583361.2674000002,5684989.9972 L 2583340.1007000003,5685000.5806 L 2583326.8715000004,5685015.1327 L 2583318.9340000004,5685031.0077 L 2583312.3194000004,5685052.1744 L 2583304.3819000004,5685079.9557 L 2583295.1215000004,5685106.4141 L 2583283.2152000004,5685142.1329 L 2583272.6317999996,5685167.2684 L 2583258.0796999997,5685191.0809 L 2583234.2671999997,5685217.5393 L 2583209.1317,5685243.9977 L 2583186.6421,5685266.4873 L 2583160.1837,5685286.3311 L 2583137.6941,5685308.8208 L 2583111.2357,5685323.3729 L 2583079.4856000002,5685339.2479 L 2583049.0585000003,5685348.5083 L 2583021.2772000004,5685361.7375 L 2582978.9437999995,5685376.2896 L 2582948.5165999997,5685389.5188 L 2582914.1207,5685402.748 L 2582883.6936,5685415.9772 L 2582844.006,5685434.4981 L 2582810.933,5685449.0502 L 2582767.2767000003,5685463.6023 L 2582735.5266000004,5685468.894 L 2582686.5785999997,5685470.2169 L 2582648.2139,5685471.5398 L 2582607.2034,5685464.9252 L 2582552.9637,5685454.3419 L 2582502.6928000003,5685439.7898 L 2582453.7448000005,5685422.5918 L 2582411.4113999996,5685402.748 L 2582379.6613,5685382.9042 L 2582346.5883,5685359.0917 L 2582324.0987,5685332.6333 L 2582305.5778,5685306.1749 L 2582289.7028,5685282.3624 L 2582277.7965,5685253.2582 L 2582263.2444,5685226.7998 L 2582255.3069,5685204.3101 L 2582251.3381000003,5685176.5288 L 2582250.0152000003,5685150.0704 L 2582251.3381000003,5685123.6121 L 2582253.984,5685094.5078 L 2582255.3069,5685066.7265 L 2582253.984,5685037.6223 L 2582253.984,5685001.9035 L 2582250.0152000003,5684971.4763 L 2582251.3381000003,5684950.3096 L 2582247.3694,5684930.4658 L 2582242.0777000003,5684911.945 L 2582235.7276999997,5684891.3074 L 2582228.5839,5684871.4636 L 2582207.9464,5684850.8261 L 2582188.1026,5684835.7448 L 2582178.5716000004,5684827.3136 L 2582167.465,5684817.4885 L 2582150.7962999996,5684807.1698 L 2582137.3025,5684795.2635 L 2582123.0149999997,5684785.7385 L 2582115.0774,5684773.8322 L 2582111.9024,5684761.9259 L 2582113.4899000004,5684746.8446 L 2582119.84,5684734.1446 L 2582128.5712,5684717.4758 L 2582138.8899999997,5684703.9821 L 2582149.2088,5684694.457 L 2582168.2588,5684667.4695 L 2582178.5776000004,5684650.0069 L 2582188.1026,5684627.7819 L 2582195.2463999996,5684606.3506 L 2582197.5191,5684587.4113 L 2582197.6276000002,5684586.5068 L 2582197.6276000002,5684562.6943 L 2582198.4214000003,5684541.263 L 2582197.6276000002,5684465.0628 L 2582194.4526000004,5684438.0753 L 2582188.8963,5684402.3565 L 2582184.9276,5684379.3377 L 2582179.3712999998,5684354.7314 L 2582180.1651,5684336.4751 L 2582184.1338,5684316.6313 L 2582184.9276,5684298.375 L 2582185.7213000003,5684282.5 L 2582187.3087999998,5684258.6874 L 2582186.5151000004,5684238.8436 L 2582183.3838,5684220.0558 L 2582183.3400999997,5684219.7936 L 2582181.7526000002,5684206.2998 L 2582176.9901,5684193.5998 L 2582175.6739,5684191.6255 L 2582169.0525,5684181.6935 L 2582156.3525,5684166.6122 L 2582142.8586999997,5684153.9122 L 2582128.5712,5684143.5934 L 2582109.5212000003,5684130.8934 L 2582094.4398999996,5684115.8121 L 2582084.7419,5684109.3468 L 2582082.5335999997,5684107.8746 L 2582076.1836,5684099.1433 L 2582074.5960999997,5684089.6183 L 2582075.3899,5684079.2996 L 2582073.0086000003,5684063.4245 L 2582062.6898,5684048.3432 L 2582043.6398,5684034.8495 L 2582021.4148000004,5684027.7057 L 2581978.5522,5684019.7682 L 2581947.5959,5684015.7994 L 2581910.2895,5684011.8307 L 2581878.5395,5684011.0369 L 2581856.3143999996,5684012.6244 L 2581843.6144000003,5684015.7994 L 2581826.1519,5684015.0057 L 2581805.5143,5684013.4182 L 2581797.1519,5684011.4339 L 2581774.2934,5684006.0098 L 2581737.2517,5683994.3681 L 2581697.0349000003,5683980.6098 L 2581658.9348999998,5683967.9097 L 2581627.1848,5683957.3264 L 2581591.2013999997,5683944.6264 L 2581547.8096000003,5683928.7513 L 2581543.4239,5683927.6845 L 2581508.6512,5683919.2263 L 2581469.4928,5683909.7013 L 2581439.8594000004,5683907.5846 L 2581404.9343999997,5683909.7013 L 2581312.8592,5683921.343 L 2581267.3507000003,5683916.0513 L 2581174.2172,5683913.9346 L 2581104.3671000004,5683907.5846 L 2581042.9836,5683903.3513 L 2581002.7669,5683906.5263 L 2580955.2506999997,5683914.0196 L 2580921.2751,5683920.2847 L 2580881.0582999997,5683923.4597 L 2580848.2499,5683922.4013 L 2580810.1498,5683919.2263 L 2580755.1163999997,5683908.643 L 2580708.5495999996,5683897.0013 L 2580664.0994999995,5683879.0096 L 2580529.6909,5683829.2678 L 2580428.0906999996,5683774.2344 L 2580354.0072999997,5683730.8426 L 2580313.2473999998,5683703.853 L 2580275.6903999997,5683678.9842 L 2580234.4153000005,5683659.9341 L 2580201.6069,5683650.4091 L 2580150.8068000004,5683644.0591 L 2580113.7651000004,5683641.9424 L 2580086.2484,5683635.5924 L 2580057.6733,5683628.1841 L 2580023.8066,5683616.5424 L 2579990.9982000003,5683602.784 L 2579960.3065,5683596.434 L 2579927.4981000004,5683592.2007 L 2579889.398,5683593.259 L 2579843.8896000003,5683597.4923 L 2579701.0143,5683630.3007 L 2579691.1623,5683634.0624 L 2579642.8058,5683652.5258 L 2579581.4223999996,5683685.3342 L 2579504.1639,5683723.4343 L 2579451.2471000003,5683744.601 L 2579400.4469999997,5683758.3593 L 2579345.9189,5683769.6765 L 2579344.3552,5683770.001 L 2579274.5050999997,5683787.9927 L 2579233.2300000004,5683798.5761 L 2579184.5466,5683817.6261 L 2579136.9215,5683832.4428 L 2579092.4714,5683840.9095 L 2579043.7879999997,5683849.3762 L 2578995.1045000004,5683850.4345 L 2578952.7710999995,5683850.4345 L 2578912.5544,5683839.8512 L 2578858.5793000003,5683827.1511 L 2578819.4208000004,5683821.8595 L 2578771.7958000004,5683818.6844 L 2578723.1123,5683825.0345 L 2578676.5456,5683836.6762 L 2578629.9787999997,5683851.4928 L 2578577.062,5683876.8929 L 2578538.9620000003,5683903.3513 L 2578502.9786,5683934.043 L 2578471.2285,5683967.9097 L 2578435.2451,5684007.0682 L 2578407.7284000004,5684048.3432 L 2578369.6283,5684107.61 L 2578347.0221999995,5684156.397 L 2578346.8740999997,5684156.7168 L 2578316.4469,5684199.0502 L 2578286.0198,5684247.9982 L 2578246.3322,5684298.2692 L 2578207.9675000003,5684326.0505 L 2578173.5716000004,5684357.8005 L 2578100.8110999996,5684413.3631 L 2578063.7693,5684447.759 L 2578043.9255,5684466.2799 L 2578012.1755,5684487.4466 L 2577979.1025,5684515.2279 L 2577947.3524,5684531.103 L 2577914.2795,5684545.6551 L 2577875.9148000004,5684565.4989 L 2577828.2896999996,5684590.6343 L 2577796.5396,5684611.801 L 2577764.7896,5684639.5823 L 2577744.9458,5684660.7491 L 2577706.5811,5684688.5304 L 2577673.5081,5684725.5721 L 2577647.0498,5684742.77 L 2577615.2997000003,5684762.6138 L 2577579.5809000004,5684774.5201 L 2577549.1536999997,5684779.8118 L 2577513.4348999998,5684790.3951 L 2577471.1015,5684794.3639 L 2577383.7888,5684808.916 L 2577337.4866000004,5684818.1764 L 2577287.2156999996,5684838.0202 L 2577240.9135,5684847.2807 L 2577193.2884,5684849.9265 L 2577149.6321,5684852.5724 L 2577115.2362,5684852.5724 L 2577080.8403000003,5684844.6348 L 2577041.1527000004,5684843.3119 L 2576985.5900999997,5684851.2494 L 2576939.2879,5684867.1245 L 2576870.4961,5684897.5516 L 2576825.5169,5684921.3642 L 2576776.5687999995,5684958.4059 L 2576739.5270999996,5684987.5101 L 2576707.777,5685020.5831 L 2576657.5061,5685060.2707 L 2576619.1414,5685099.9583 L 2576574.1622,5685138.3229 L 2576531.8288000003,5685174.0417 L 2576498.7558000004,5685204.4689 L 2576464.3598999996,5685225.6356 L 2576428.6410999997,5685242.8335 L 2576392.9222,5685253.4169 L 2576359.8493,5685261.3544 L 2576339.9601999996,5685262.1831 L 2576328.0992,5685262.6773 L 2576281.7970000003,5685264.0003 L 2576248.7240000004,5685266.6461 L 2576210.3594000004,5685261.3544 L 2576181.2551999995,5685253.4169 L 2576157.4425999997,5685242.8335 L 2576121.2452,5685226.571 L 2576066.1612,5685201.823 L 2576065.6004,5685201.4966 L 2575977.5256000003,5685150.2292 L 2575858.4628,5685090.6978 L 2575757.921,5685037.7811 L 2575600.4935999997,5684967.6663 L 2575476.1392,5684916.0725 L 2575431.1599000003,5684896.2287 L 2575390.1494000005,5684880.3537 L 2575345.1701999996,5684873.7391 L 2575298.868,5684868.4474 L 2575248.597,5684868.4474 L 2575195.6803,5684867.1245 L 2575142.7635000004,5684880.3537 L 2575092.4926000005,5684890.937 L 2575104.5,5684903.5 L 2574921.4807,5685092.3815 L 2574936.8783,5685120.5587 L 2574937.9365999997,5685139.3441 L 2574930.7929,5685156.8067 L 2574914.6533000004,5685169.2421 L 2574890.5761,5685179.0317 L 2574816.916,5685200.256 L 2574805.4261999996,5685203.5666 L 2574781.8322,5685214.7505 L 2574751.7357,5685236.7407 L 2574724.4175000004,5685257.4279 L 2574690.7224000003,5685291.3692 L 2574661.3142,5685324.103 L 2574635.1204000004,5685357.8375 L 2574589.647,5685405.3397 L 2574517.2483,5685472.5346 L 2574348.3536,5685679.0326 L 2574330.1503,5685686.8643 L 2574305.8086,5685685.1709 L 2574290.3569,5685690.0393 L 2574274.4818,5685713.3227 L 2574249.5347999996,5685747.9206 L 2574121.2348999996,5685880.1163 L 2574092.0248,5685929.0114 L 2574073.823,5685948.0574 L 2574054.2366000004,5685966.5529 L 2573743.9130999995,5686292.048 L 2573632.9129999997,5686403.0481 L 2573473.5843,5686572.2365 L 2572888.1253000004,5687175.0568 L 2572361.0021,5687718.3824 L 2572303.6240999997,5687778.7702 L 2572145.2520000003,5687947.9637 L 2572110.7915000003,5687979.2437 L 2572089.6185,5688001.5848 L 2572055.5422,5688034.1091 L 2572046.0779,5688041.442 L 2572032.7879999997,5688050.7779 L 2572006.6326,5688072.004 L 2571984.2401,5688096.1085 L 2571253.8159999996,5688859.5206 L 2570691.9674000004,5689439.8566 L 2570514.124,5689613.7882 L 2570437.9626,5689695.3815 L 2570319.749,5689823.2088 L 2570304.6201,5689841.8552 L 2569983.2067,5690172.525 L 2569868.7468,5690293.5328 L 2569813.0431000004,5690352.423 L 2569765.7654999997,5690402.1059 L 2569703.2868999997,5690467.4115 L 2569586.6024,5690589.376 L 2569267.2232,5690923.2613 L 2569098.3844999997,5691099.7933 z" /></g></svg>